<?xml version="1.0" encoding="utf-8"?>

<!DOCTYPE svg PUBLIC "-//W3C//DTD SVG 1.1//EN" "http://www.w3.org/Graphics/SVG/1.1/DTD/svg11.dtd">
<!-- Uploaded to: SVG Repo, www.svgrepo.com, Generator: SVG Repo Mixer Tools -->
<svg version="1.1" xmlns="http://www.w3.org/2000/svg" xmlns:xlink="http://www.w3.org/1999/xlink"  width="800px"
	 height="800px" viewBox="0 0 96 96" enable-background="new 0 0 96 96" xml:space="preserve">
<g id="record_x5F_player">
</g>
<g id="trumpet">
</g>
<g id="stereo_x5F_speaker">
</g>
<g id="guitar">
</g>
<g id="speaker">
</g>
<g id="jack">
</g>
<g id="drum_x5F_sticks">
</g>
<g id="drum">
</g>
<g id="cymbal">
</g>
<g id="piano">
	<g opacity="0.6">
		<g>
			<rect x="14" y="28" fill="#47BCFE" width="12" height="36"/>
		</g>
	</g>
	<g opacity="0.6">
		<g>
			<rect x="42" y="28" fill="#47BCFE" width="12" height="36"/>
		</g>
	</g>
	<g opacity="0.6">
		<g>
			<rect x="70" y="28" fill="#47BCFE" width="12" height="36"/>
		</g>
	</g>
	<g opacity="0.7">
		<g>
			<g>
				<path fill="#CCF2FF" d="M26,57H14c-0.55273,0-1-0.44727-1-1s0.44727-1,1-1h12c0.55273,0,1,0.44727,1,1S26.55273,57,26,57z"/>
			</g>
		</g>
	</g>
	<g opacity="0.7">
		<g>
			<g>
				<path fill="#CCF2FF" d="M54,57H42c-0.55273,0-1-0.44727-1-1s0.44727-1,1-1h12c0.55273,0,1,0.44727,1,1S54.55273,57,54,57z"/>
			</g>
		</g>
	</g>
	<g opacity="0.7">
		<g>
			<g>
				<path fill="#CCF2FF" d="M82,57H70c-0.55273,0-1-0.44727-1-1s0.44727-1,1-1h12c0.55273,0,1,0.44727,1,1S82.55273,57,82,57z"/>
			</g>
		</g>
	</g>
	<g>
		<g>
			<path fill="#141B41" d="M91,24H5c-0.55273,0-1-0.44775-1-1s0.44727-1,1-1h86c0.55273,0,1,0.44775,1,1S91.55273,24,91,24z"/>
		</g>
	</g>
	<g>
		<g>
			<path fill="#141B41" d="M91,10H5c-0.55273,0-1-0.44775-1-1s0.44727-1,1-1h86c0.55273,0,1,0.44775,1,1S91.55273,10,91,10z"/>
		</g>
	</g>
	<g>
		<g>
			<path fill="#141B41" d="M91,94H5c-1.10449,0-2-0.89551-2-2V28c0-1.10449,0.89551-2,2-2h86c1.10449,0,2,0.89551,2,2v64
				C93,93.10449,92.10449,94,91,94z M7,90h82V30H7V90z"/>
		</g>
	</g>
	<g>
		<g>
			<path fill="#141B41" d="M26,66H14c-1.10449,0-2-0.89551-2-2V28c0-1.10449,0.89551-2,2-2h12c1.10449,0,2,0.89551,2,2v36
				C28,65.10449,27.10449,66,26,66z M16,62h8V30h-8V62z"/>
		</g>
	</g>
	<g>
		<g>
			<path fill="#141B41" d="M54,66H42c-1.10449,0-2-0.89551-2-2V28c0-1.10449,0.89551-2,2-2h12c1.10449,0,2,0.89551,2,2v36
				C56,65.10449,55.10449,66,54,66z M44,62h8V30h-8V62z"/>
		</g>
	</g>
	<g>
		<g>
			<path fill="#141B41" d="M82,66H70c-1.10449,0-2-0.89551-2-2V28c0-1.10449,0.89551-2,2-2h12c1.10449,0,2,0.89551,2,2v36
				C84,65.10449,83.10449,66,82,66z M72,62h8V30h-8V62z"/>
		</g>
	</g>
	<g>
		<g>
			<path fill="#141B41" d="M20,93c-0.55273,0-1-0.44727-1-1V64c0-0.55273,0.44727-1,1-1s1,0.44727,1,1v28
				C21,92.55273,20.55273,93,20,93z"/>
		</g>
	</g>
	<g>
		<g>
			<path fill="#141B41" d="M34,93c-0.55273,0-1-0.44727-1-1V28c0-0.55225,0.44727-1,1-1s1,0.44775,1,1v64
				C35,92.55273,34.55273,93,34,93z"/>
		</g>
	</g>
	<g>
		<g>
			<path fill="#141B41" d="M62,93c-0.55273,0-1-0.44727-1-1V28c0-0.55225,0.44727-1,1-1s1,0.44775,1,1v64
				C63,92.55273,62.55273,93,62,93z"/>
		</g>
	</g>
	<g>
		<g>
			<path fill="#141B41" d="M48,93c-0.55273,0-1-0.44727-1-1V64c0-0.55273,0.44727-1,1-1s1,0.44727,1,1v28
				C49,92.55273,48.55273,93,48,93z"/>
		</g>
	</g>
	<g>
		<g>
			<path fill="#141B41" d="M76,93c-0.55273,0-1-0.44727-1-1V64c0-0.55273,0.44727-1,1-1s1,0.44727,1,1v28
				C77,92.55273,76.55273,93,76,93z"/>
		</g>
	</g>
	<g>
		<g>
			<path fill="#141B41" d="M91,30c-1.10449,0-2-0.89551-2-2V6H7v22c0,1.10449-0.89551,2-2,2s-2-0.89551-2-2V4
				c0-1.10449,0.89551-2,2-2h86c1.10449,0,2,0.89551,2,2v24C93,29.10449,92.10449,30,91,30z"/>
		</g>
	</g>
	<g>
		<g>
			<path fill="#141B41" d="M26,59H14c-0.55273,0-1-0.44727-1-1s0.44727-1,1-1h12c0.55273,0,1,0.44727,1,1S26.55273,59,26,59z"/>
		</g>
	</g>
	<g>
		<g>
			<path fill="#141B41" d="M54,59H42c-0.55273,0-1-0.44727-1-1s0.44727-1,1-1h12c0.55273,0,1,0.44727,1,1S54.55273,59,54,59z"/>
		</g>
	</g>
	<g>
		<g>
			<path fill="#141B41" d="M82,59H70c-0.55273,0-1-0.44727-1-1s0.44727-1,1-1h12c0.55273,0,1,0.44727,1,1S82.55273,59,82,59z"/>
		</g>
	</g>
	<g>
		<g>
			<path fill="#141B41" d="M62,82H5c-0.55273,0-1-0.44727-1-1s0.44727-1,1-1h57c0.55273,0,1,0.44727,1,1S62.55273,82,62,82z"/>
		</g>
	</g>
	<g>
		<g>
			<path fill="#141B41" d="M16,87h-6c-0.55273,0-1-0.44727-1-1s0.44727-1,1-1h6c0.55273,0,1,0.44727,1,1S16.55273,87,16,87z"/>
		</g>
	</g>
	<g>
		<g>
			<path fill="#141B41" d="M30,87h-6c-0.55273,0-1-0.44727-1-1s0.44727-1,1-1h6c0.55273,0,1,0.44727,1,1S30.55273,87,30,87z"/>
		</g>
	</g>
	<g>
		<g>
			<path fill="#141B41" d="M44,87h-6c-0.55273,0-1-0.44727-1-1s0.44727-1,1-1h6c0.55273,0,1,0.44727,1,1S44.55273,87,44,87z"/>
		</g>
	</g>
	<g>
		<g>
			<path fill="#141B41" d="M58,87h-6c-0.55273,0-1-0.44727-1-1s0.44727-1,1-1h6c0.55273,0,1,0.44727,1,1S58.55273,87,58,87z"/>
		</g>
	</g>
	<g>
		<g>
			<path fill="#141B41" d="M76,86H62c-0.55273,0-1-0.44727-1-1s0.44727-1,1-1h14c0.55273,0,1,0.44727,1,1S76.55273,86,76,86z"/>
		</g>
	</g>
	<g>
		<g>
			<path fill="#141B41" d="M86,86h-6c-0.55273,0-1-0.44727-1-1s0.44727-1,1-1h6c0.55273,0,1,0.44727,1,1S86.55273,86,86,86z"/>
		</g>
	</g>
	<g>
		<g>
			<path fill="#141B41" d="M91,82H76c-0.55273,0-1-0.44727-1-1s0.44727-1,1-1h15c0.55273,0,1,0.44727,1,1S91.55273,82,91,82z"/>
		</g>
	</g>
	<g>
		<g>
			<path fill="#141B41" d="M63,19c-1.6543,0-3-1.3457-3-3s1.3457-3,3-3s3,1.3457,3,3S64.6543,19,63,19z M63,15
				c-0.55176,0-1,0.44873-1,1s0.44824,1,1,1s1-0.44873,1-1S63.55176,15,63,15z"/>
		</g>
	</g>
	<g>
		<g>
			<path fill="#141B41" d="M53,19c-1.6543,0-3-1.3457-3-3s1.3457-3,3-3s3,1.3457,3,3S54.6543,19,53,19z M53,15
				c-0.55176,0-1,0.44873-1,1s0.44824,1,1,1s1-0.44873,1-1S53.55176,15,53,15z"/>
		</g>
	</g>
	<g>
		<g>
			<path fill="#141B41" d="M43,19c-1.6543,0-3-1.3457-3-3s1.3457-3,3-3s3,1.3457,3,3S44.6543,19,43,19z M43,15
				c-0.55176,0-1,0.44873-1,1s0.44824,1,1,1s1-0.44873,1-1S43.55176,15,43,15z"/>
		</g>
	</g>
	<g>
		<g>
			<path fill="#141B41" d="M33,19c-1.6543,0-3-1.3457-3-3s1.3457-3,3-3s3,1.3457,3,3S34.6543,19,33,19z M33,15
				c-0.55176,0-1,0.44873-1,1s0.44824,1,1,1s1-0.44873,1-1S33.55176,15,33,15z"/>
		</g>
	</g>
	<g>
		<g>
			<path fill="#141B41" d="M19,17H5c-0.55273,0-1-0.44775-1-1s0.44727-1,1-1h14c0.55273,0,1,0.44775,1,1S19.55273,17,19,17z"/>
		</g>
	</g>
	<g>
		<g>
			<path fill="#141B41" d="M91,17H77c-0.55273,0-1-0.44775-1-1s0.44727-1,1-1h14c0.55273,0,1,0.44775,1,1S91.55273,17,91,17z"/>
		</g>
	</g>
</g>
<g id="microphone">
</g>
<g id="headphone">
</g>
<g id="musical_x5F_score">
</g>
<g id="accordion">
</g>
<g id="megaphone">
</g>
</svg>